<?xml version="1.0" standalone="no"?>
<!DOCTYPE svg PUBLIC "-//W3C//DTD SVG 20010904//EN"
 "http://www.w3.org/TR/2001/REC-SVG-20010904/DTD/svg10.dtd">
<svg version="1.0" xmlns="http://www.w3.org/2000/svg"
 width="700.000000pt" height="700.000000pt" viewBox="0 0 700.000000 700.000000"
 preserveAspectRatio="xMidYMid meet">
<metadata>
Created by potrace 1.11, written by Peter Selinger 2001-2013
</metadata>
<g transform="translate(0.000000,700.000000) scale(0.100000,-0.100000)"
fill="#000000" stroke="none">
<path d="M1630 3928 c0 -247 3 -318 13 -318 20 -1 538 -1 585 -1 l42 1 0 319
0 318 -320 0 -320 0 0 -319z"/>
<path d="M2400 4195 c-1 -57 -1 -464 0 -540 l0 -51 319 0 319 0 0 318 0 318
-21 1 c-12 0 -156 1 -320 2 l-297 2 0 -50z"/>
<path d="M3185 4242 c-20 -3 -20 -10 -18 -315 1 -172 2 -314 2 -317 1 -4 144
-6 319 -5 l317 0 1 318 0 317 -40 1 c-133 3 -564 4 -581 1z"/>
<path d="M3939 4246 c-1 -1 -3 -144 -4 -318 l-1 -318 35 -1 c169 -2 595 1 599
5 4 4 6 533 3 617 -1 14 -34 16 -316 16 -173 0 -316 -1 -316 -1z"/>
<path d="M4701 3929 c0 -244 3 -319 12 -320 14 0 596 0 615 1 9 0 12 71 12
318 l0 319 -319 0 -320 0 0 -318z"/>
<path d="M2633 3385 c-127 -39 -193 -135 -199 -285 -3 -109 20 -175 85 -240
62 -62 127 -84 225 -78 159 11 254 113 264 284 9 158 -69 286 -193 319 -52 13
-139 14 -182 0z m176 -123 c44 -32 63 -77 68 -156 4 -60 1 -82 -17 -122 -28
-65 -60 -87 -132 -92 -51 -4 -62 -1 -94 23 -52 40 -72 92 -70 180 3 89 27 141
81 172 48 27 125 25 164 -5z"/>
<path d="M4916 3383 c-88 -26 -145 -115 -126 -199 17 -74 87 -118 240 -150
151 -32 141 -155 -12 -151 -67 2 -108 28 -120 75 -8 31 -10 32 -67 32 -67 0
-73 -7 -58 -60 24 -88 96 -138 211 -147 162 -12 266 50 280 167 11 97 -47 153
-206 199 -62 17 -122 40 -132 51 -38 37 14 99 79 95 11 -1 29 -2 41 -3 28 -3
59 -31 67 -62 6 -24 8 -25 69 -20 60 5 63 6 60 30 -17 124 -167 189 -326 143z"/>
<path d="M1708 3355 c-2 -16 -1 -41 2 -55 5 -25 7 -25 90 -25 l85 0 0 -240 1
-240 65 -3 65 -3 -1 228 c0 125 1 235 3 243 3 13 19 16 88 15 46 -1 84 1 85 4
5 46 5 91 0 98 -3 5 -112 9 -243 9 l-236 0 -4 -31z"/>
<path d="M3238 3386 c0 -1 -2 -135 -3 -298 l-2 -298 62 0 61 0 0 195 c-1 107
1 195 4 195 5 -1 189 -293 223 -356 19 -33 20 -34 86 -34 l66 0 -1 293 c-1
160 -2 295 -3 298 0 3 -27 5 -58 4 l-58 -1 -1 -187 c0 -103 -3 -189 -6 -192
-2 -3 -58 81 -124 187 l-119 192 -62 1 c-35 1 -64 2 -65 1z"/>
<path d="M4045 3380 c-1 -3 -2 -137 -2 -297 l0 -293 224 0 c205 0 223 1 224
18 0 9 2 34 3 55 l2 37 -163 0 -162 0 2 73 2 72 143 0 142 0 0 53 0 52 -144 0
-145 0 1 48 c1 83 -10 78 160 77 l153 0 2 53 c1 28 -1 53 -5 53 -23 4 -434 3
-437 -1z"/>
</g>
</svg>
